<svg id="Слой_1" data-name="Слой 1" xmlns="http://www.w3.org/2000/svg" viewBox="0 0 100 100"><defs><style>.cls-1{fill:#fff;}</style></defs><path d="M64.65,82.16c.13-4.78-1.13-9-4.81-12.4.5-.14.88-.26,1.26-.35A33.61,33.61,0,0,0,69,66.5c9.16-4.82,12.66-14.41,8.79-24A24,24,0,0,0,73.86,36c.2-2.72.45-5.2.53-7.69a18.71,18.71,0,0,0-1.22-7.47,22.59,22.59,0,0,0-13.52,6.25,34.68,34.68,0,0,0-19.32,0,23.08,23.08,0,0,0-9-5.36c-1.44-.43-2.94-.69-4.54-1.05a25.39,25.39,0,0,0-.29,14.82l-.74.92C21.37,42,19.53,48.24,21.39,55.24c1.36,5.15,4.83,8.65,9.41,11.15a31.2,31.2,0,0,0,8.33,3c.3.07.6.17,1,.29a14.89,14.89,0,0,0-4.57,8.81c-3.42,1.6-6.71,1.15-8.9-.9A39.69,39.69,0,0,1,24,74.45c-1-1.18-2-2.43-3.1-3.5a4.75,4.75,0,0,0-3.8-1.24c-.54.05-1.12.12-1.22,1,.25.19.53.44.84.64a9.33,9.33,0,0,1,4,5.6,13.88,13.88,0,0,0,3.09,6c2.61,2.89,5.91,3.62,9.62,3.07.61-.09,1.21-.22,1.93-.36V96.57l-.32-.1c.05.08.11.15.16.22a49,49,0,0,0,29.08.2c.11-.81.25-1.63.41-2.45C64.61,90.35,64.55,86.25,64.65,82.16Z"/><path class="cls-1" d="M98.29,43A48.83,48.83,0,0,0,1.17,50C1.08,75.38,19.5,92.17,35,96.47l.32.1V85.64c-.72.14-1.32.27-1.93.36-3.71.55-7-.18-9.62-3.07a13.88,13.88,0,0,1-3.09-6,9.33,9.33,0,0,0-4-5.6c-.31-.2-.59-.45-.84-.64.1-.88.68-.95,1.22-1A4.75,4.75,0,0,1,20.85,71C22,72,22.93,73.27,24,74.45a39.69,39.69,0,0,0,2.74,3.19c2.19,2,5.48,2.5,8.9.9a14.89,14.89,0,0,1,4.57-8.81c-.43-.12-.73-.22-1-.29a31.2,31.2,0,0,1-8.33-3c-4.58-2.5-8-6-9.41-11.15-1.86-7,0-13.21,4.39-18.78l.74-.92a25.39,25.39,0,0,1,.29-14.82c1.6.36,3.1.62,4.54,1.05a23.08,23.08,0,0,1,9,5.36,34.68,34.68,0,0,1,19.32,0,22.59,22.59,0,0,1,13.52-6.25,18.71,18.71,0,0,1,1.22,7.47c-.08,2.49-.33,5-.53,7.69a24,24,0,0,1,3.93,6.44c3.87,9.62.37,19.21-8.79,24a33.61,33.61,0,0,1-7.9,2.91c-.38.09-.76.21-1.26.35,3.68,3.44,4.94,7.62,4.81,12.4-.1,4.09,0,8.19,0,12.28v1c0,.4,0,.8.07,1.24A48.66,48.66,0,0,0,98.29,43Z"/></svg>