<svg id="Icons" xmlns="http://www.w3.org/2000/svg" viewBox="0 0 215 215"><defs><style>.cls-1{fill:#fff;}</style></defs><g id="Twitter"><circle id="Background" class="cls-1" cx="107.5" cy="107.5" r="107.5"/><path fill="green" id="Twitter-2" data-name="Twitter" d="M643,708.6c41.26,0,63.82-34.18,63.82-63.82,0-1,0-1.93-.07-2.89a45.74,45.74,0,0,0,11.19-11.61,45,45,0,0,1-12.88,3.53,22.54,22.54,0,0,0,9.86-12.41,45,45,0,0,1-14.24,5.44,22.45,22.45,0,0,0-38.22,20.46,63.65,63.65,0,0,1-46.22-23.43,22.44,22.44,0,0,0,6.94,29.94A22.3,22.3,0,0,1,613,651v.28a22.44,22.44,0,0,0,18,22,22.33,22.33,0,0,1-10.12.38,22.44,22.44,0,0,0,21,15.58,44.86,44.86,0,0,1-33.19,9.29A63.37,63.37,0,0,0,643,708.58" transform="translate(-554 -554)"/></g></svg>