<?xml version="1.0" standalone="no"?>
<!DOCTYPE svg PUBLIC "-//W3C//DTD SVG 20010904//EN"
 "http://www.w3.org/TR/2001/REC-SVG-20010904/DTD/svg10.dtd">
<svg version="1.0" xmlns="http://www.w3.org/2000/svg"
 width="700.000000pt" height="700.000000pt" viewBox="0 0 700.000000 700.000000"
 preserveAspectRatio="xMidYMid meet">
<metadata>
Created by potrace 1.14, written by Peter Selinger 2001-2017
</metadata>
<g transform="translate(0.000000,700.000000) scale(0.100000,-0.100000)"
fill="#000000" stroke="none">
<path d="M27 5193 c-4 -20 -1 -32 11 -40 78 -56 98 -75 131 -124 21 -31 51
-96 67 -145 l29 -89 0 -1270 0 -1270 -24 -60 c-31 -79 -100 -147 -164 -164
-43 -10 -47 -14 -47 -41 l0 -30 466 0 465 0 -3 26 c-2 20 -14 30 -62 49 -62
25 -118 65 -148 106 -46 63 -48 98 -48 861 l0 718 350 0 351 0 -3 -712 -4
-713 -22 -62 c-29 -78 -99 -151 -181 -190 -49 -23 -60 -32 -60 -53 l-1 -25
465 0 465 0 0 30 c0 28 -4 32 -45 43 -62 17 -125 77 -161 155 l-29 62 0 1325
0 1325 24 59 c30 74 102 149 160 167 39 12 41 14 41 52 0 30 -3 38 -14 34 -46
-18 -295 -29 -574 -26 l-310 4 -4 -26 c-4 -24 2 -29 57 -53 81 -35 139 -95
165 -170 19 -56 20 -83 20 -533 l0 -473 -345 0 -346 0 3 513 3 512 24 48 c27
55 98 121 147 137 27 9 34 17 34 37 l0 25 -102 -6 c-273 -16 -378 -17 -556 -7
-106 7 -199 14 -206 17 -9 3 -15 -5 -19 -23z"/>
<path d="M4559 4420 c-88 -90 -138 -129 -305 -240 -109 -72 -200 -133 -202
-135 -2 -1 0 -15 4 -29 5 -20 11 -25 23 -20 39 16 85 22 107 14 50 -19 49 0
54 -870 5 -734 7 -821 23 -874 50 -168 117 -275 200 -318 87 -44 221 -32 327
30 63 36 164 134 220 215 27 38 51 63 55 57 9 -14 -3 -127 -22 -213 -10 -46
-12 -72 -5 -79 7 -7 55 -6 143 2 79 8 205 11 311 8 l178 -5 0 27 c0 22 -6 29
-26 34 -42 11 -109 87 -134 152 -50 133 -51 151 -48 1170 l3 949 27 99 c21 74
25 103 17 113 -9 10 -24 0 -71 -52 -81 -89 -183 -169 -385 -303 -95 -63 -173
-120 -173 -127 0 -40 9 -43 61 -27 45 15 53 15 77 1 49 -27 50 -45 51 -857 1
-837 6 -778 -70 -846 -111 -101 -246 -104 -302 -7 -11 18 -28 65 -39 104 -17
68 -18 121 -18 976 0 950 1 966 45 1092 11 31 12 45 4 55 -6 8 -14 13 -18 12
-3 -1 -54 -50 -112 -108z"/>
<path d="M6310 4354 c-220 -58 -402 -244 -480 -489 -34 -107 -39 -311 -12
-426 12 -47 32 -110 45 -140 51 -113 191 -234 395 -343 231 -123 371 -236 422
-340 58 -117 50 -253 -22 -388 -100 -187 -353 -247 -520 -123 -58 43 -127 128
-172 215 -63 119 -140 415 -167 638 -10 87 -15 102 -30 102 -15 0 -18 -6 -14
-27 24 -149 34 -723 15 -877 -7 -53 -10 -99 -7 -102 3 -3 12 7 21 23 30 60 40
60 102 -2 68 -67 167 -127 249 -151 84 -25 262 -23 368 5 150 39 269 126 355
260 85 130 114 255 116 486 1 139 -2 170 -22 238 -70 243 -214 395 -587 618
-177 106 -267 177 -294 232 -31 64 -36 123 -17 197 30 117 95 193 213 247 50
23 71 27 153 28 80 0 103 -4 142 -23 122 -60 182 -199 240 -554 12 -76 25
-138 28 -138 26 1 27 21 17 200 -10 174 -2 409 20 558 5 35 3 42 -11 42 -9 0
-16 -6 -16 -14 0 -28 -22 -28 -84 3 -34 16 -88 37 -121 46 -75 19 -250 19
-325 -1z"/>
<path d="M2892 4335 c-275 -63 -488 -252 -636 -565 -99 -210 -131 -385 -123
-679 6 -224 16 -288 72 -458 80 -240 229 -459 386 -565 360 -244 843 -169
1103 171 149 195 256 481 274 737 10 139 -1 401 -23 514 -84 440 -324 741
-670 836 -83 23 -300 28 -383 9z m253 -129 c73 -19 113 -42 170 -100 64 -64
105 -135 145 -256 78 -233 105 -445 97 -764 -6 -249 -23 -373 -82 -575 -87
-304 -222 -445 -425 -444 -120 1 -200 41 -283 142 -147 180 -239 615 -223
1053 16 427 129 769 294 889 84 61 204 83 307 55z"/>
</g>
</svg>
