<svg id="layer" xmlns="http://www.w3.org/2000/svg" viewBox="0 0 652 155"><path d="M126.3,48.1c-18,0-31,13.8-31,31.8s13,31.8,31,31.8,31-13.8,31-31.8S144.3,48.1,126.3,48.1Zm0,55.9C114.2,104,108,93.5,108,79.8s6.2-24.2,18.3-24.2,18.3,10.5,18.3,24.2S138.4,104,126.3,104Zm180-2.5a10,10,0,0,1-4.4,1.5c-1.7,0-2.5-.9-2.5-3.4v-29c0-13.8-8.6-22.5-23.9-22.5-14,0-23.1,6.7-23.1,14.3a5.67,5.67,0,0,0,5.8,6c3.2,0,5.2-1.5,6.9-6.1,1.8-4.9,4.3-6.9,11-6.9,7.7,0,11.4,4.1,11.4,12.5v5.3c-27.6,1.1-38.3,9.2-38.3,21.1,0,10.6,8,17.2,19.6,17.2a26.29,26.29,0,0,0,19.3-8.8c1.1,5.5,5.1,8,10.8,8a15.78,15.78,0,0,0,10.2-4.3l-2.8-4.9ZM271.7,103c-5.6,0-9.4-3.6-9.4-9.2,0-7.6,7.4-12.8,25.2-14V94.1c-4.2,5.8-10.6,8.9-15.8,8.9ZM471.9,44.2,469.2,41l8.4-10.2a67.8,67.8,0,0,1,5.6-6.1c3.1-2.6,6.4-2.4,8.6.1s1.8,5.8-1.4,8.5a63.23,63.23,0,0,1-7,4.5Zm5.6,58.8c-12,0-18.8-8.2-18.8-23.2a14.77,14.77,0,0,1,.1-2.1h41.8V73.5c0-13.8-10.1-25.5-25.9-25.5C458.4,48,446,62.4,446,79.8c0,19.3,11.7,31.8,30,31.8,10.2,0,19.5-4.9,26.7-13.7l-4.6-4.8c-6.5,6.5-13.2,9.9-20.6,9.9Zm-2.8-47.4c7.9,0,13.2,5.7,13.5,15.1H459.8C461.9,61.3,467.7,55.6,474.7,55.6Zm64.9,42.3,4.5,5c-5.3,5.8-11.3,8.8-17.7,8.8-9.2,0-14.5-4.6-14.5-14.1V56.7H502V50.5c10.4-1.3,13.9-4.9,15.6-23.7h6.1V49.9h17.1v6.8H523.7V97.3c0,4.3,1.6,5.8,5.2,5.8C531.7,102.9,535.9,101.1,539.6,97.9Zm15.1-66.4a7.9,7.9,0,1,1,7.9,7.9A7.85,7.85,0,0,1,554.7,31.5ZM229.6,104.2v5.7H197.4v-5.7c9.3-.7,10.1-1.6,10.1-10.5V70.3c0-9.3-3.7-13.5-11.1-13.5-5.4,0-12,4-17.4,10.7V93.7c0,8.9.8,9.8,10.1,10.5v5.7H156.9v-5.7c9.3-.7,10.2-1.6,10.2-10.5V66.5c0-8.9-.9-9.8-10.2-10.5V50.3l21.5-1.6V59.1c5.5-6.9,12.8-11,20.8-11,12.5,0,20.3,7.9,20.3,21.6V93.8c-.2,8.8.7,9.7,10.1,10.4ZM343.7,48a23.65,23.65,0,0,0-18.4,8.8V48.5l-21.5,1.6v5.7c9.3.7,10.2,1.6,10.2,10.5v57c0,8.9-.9,9.8-10.2,10.5v5.7h34.3V134c-10.9-.8-12.2-1.6-12.2-10.5V105c4.9,4.4,11.3,6.5,18.3,6.5,16.9,0,28.6-14.7,28.6-31.8,0-17.9-12.3-31.7-29.1-31.7Zm-2.1,55c-5.9,0-11.3-2.6-15.6-7.2V65.1c4-5.3,10-8.6,15.4-8.6,11.2,0,18.7,8.4,18.7,23.2C360.1,94.9,352.3,103,341.6,103Zm237.1,1.2v5.7H546.5v-5.7c9.3-.7,10.2-1.6,10.2-10.5V66.5c0-8.9-.9-9.8-10.2-10.5V50.3l22.1-1.6v45C568.6,102.6,569.4,103.5,578.7,104.2ZM411.5,48a23.65,23.65,0,0,0-18.4,8.8V48.5l-21.5,1.6v5.7c9.3.7,10.2,1.6,10.2,10.5v57c0,8.9-.9,9.8-10.2,10.5v5.7h34.3V134c-10.9-.8-12.2-1.6-12.2-10.5V105c4.9,4.4,11.3,6.5,18.3,6.5,16.9,0,28.6-14.7,28.6-31.8,0-17.9-12.3-31.7-29.1-31.7Zm-2.1,55c-5.9,0-11.3-2.6-15.6-7.2V65.1c4-5.3,10-8.6,15.4-8.6,11.2,0,18.7,8.4,18.7,23.2-.1,15.2-7.8,23.3-18.5,23.3ZM60.8,48a23.25,23.25,0,0,0-17.7,8V14.8L21,16.2v5.7c9.3.7,10.2,1.6,10.2,10.5v78h4l5.4-7.2c5.2,5.6,12.4,8.3,20.5,8.3,17.1,0,28.8-14.7,28.8-31.8C89.9,61.8,77.6,48,60.8,48Zm-2.1,55c-5.5,0-10.9-2.2-15.6-7.1V65.1c4.1-5.5,10.1-8.5,15.3-8.5,11.2,0,18.7,8.4,18.7,23.2C77.2,95,69.2,103,58.7,103Zm562.3-.2c-5.3,5.8-11.3,8.8-17.7,8.8-9.2,0-14.5-4.6-14.5-14.1V56.6h-9.9V50.4c10.4-1.3,13.9-4.9,15.6-23.7h6.1V49.8h18.5v6.8H600.6V97.2c0,4.3,1.6,5.8,5.2,5.8,2.7,0,6.9-1.8,10.6-5C616.5,97.9,621,102.8,621,102.8Z"/></svg>