<svg id="Слой_1" data-name="Слой 1" xmlns="http://www.w3.org/2000/svg" viewBox="0 0 306.13 53.79"><defs><style>.cls-1{fill:none;}</style></defs><path class="cls-1" d="M219.55,31c0-3.21,0-6.42,0-9.64,0-.19,0-.38-.07-.65-.94.42-1.81.84-2.69,1.2a1.18,1.18,0,0,0-.7.82,10.93,10.93,0,0,0,1.39,9.36,4.14,4.14,0,0,0,.35.43c.39-.19.74-.4,1.11-.54A.89.89,0,0,0,219.55,31Z"/><path class="cls-1" d="M150.08,27.24a2,2,0,0,0-1.32-.26,1.48,1.48,0,0,0-1.46,1.66V39a6.52,6.52,0,0,0,.75.1,2.63,2.63,0,0,0,2.64-2.28,5.06,5.06,0,0,0,.05-.68c0-2.58,0-5.16,0-7.73A1.19,1.19,0,0,0,150.08,27.24Z"/><path class="cls-1" d="M167.56,25.7c-1.05-1-2.08-1.95-3.12-2.92a2.3,2.3,0,0,0-.4-.26c0,.09-.06.11-.06.13,0,3.52,0,7,0,10.56a.87.87,0,0,0,.26.59c1.16,1.1,2.34,2.18,3.63,3.37,0-.27.08-.39.08-.51q0-5.05,0-10.1A1.08,1.08,0,0,0,167.56,25.7Z"/><path class="cls-1" d="M18.22,31.07c0-3.26,0-6.53,0-9.8a3.56,3.56,0,0,0-.08-.56c-1,.45-2,.86-2.89,1.31a1,1,0,0,0-.44.57,10.85,10.85,0,0,0,1.42,9.63,1.92,1.92,0,0,0,.28.3c.4-.2.77-.42,1.17-.58A.81.81,0,0,0,18.22,31.07Z"/><path class="cls-1" d="M99.23,28.8c-1.18-2-2.3-4-3.56-6-.07,2.85-.11,5.67-.06,8.65Z"/><path class="cls-1" d="M275.65,22.81l-.13.07v8.59l3.6-2.68Z"/><path class="cls-1" d="M293,30.58c-.57-.53-1.15-1-1.73-1.56-1.12,1.08-2.18,2.06-3.2,3.1-.76.77-1.47,1.6-2.19,2.42a6.64,6.64,0,0,0-.51.79c2.78-2.77,6-1.69,7.75,1.46,0-2,0-3.91,0-5.86A.51.51,0,0,0,293,30.58Z"/><path class="cls-1" d="M289.46,27.54c.48.45,1,.87,1.45,1.3,1.72-1.17,4.41-4.2,4.66-5.22-.27.2-.52.42-.8.59a3,3,0,0,1-3,.35,5.13,5.13,0,0,1-2-1.58c-.13-.17-.28-.32-.54-.61,0,1.69,0,3.2,0,4.7A.74.74,0,0,0,289.46,27.54Z"/><path class="cls-1" d="M59,28.8l-3.49-6a60.09,60.09,0,0,0,0,8.6Z"/><path class="cls-1" d="M147.3,22.73a1.31,1.31,0,0,0,1,1.5,2,2,0,0,0,2.07-.34.88.88,0,0,0,.39-.77c0-2,0-3.93,0-5.89a.85.85,0,0,0-.19-.54c-.68-.64-1.39-1.25-2-1.85a1.78,1.78,0,0,0-1.21,1.93C147.36,18.76,147.3,20.75,147.3,22.73Z"/><path class="cls-1" d="M150.65,27.14a8.64,8.64,0,0,0-.05-2.95,2.51,2.51,0,0,1-3.29-.12c0,1.12,0,2.08,0,3.19A2.49,2.49,0,0,1,150.65,27.14Z"/><path d="M152.15,11.34c-1.63,1.26-3.14,2.6-4.85,3.89,0-.73,0-1.29,0-1.85a4,4,0,0,0-.18-1.67C147,14,147,16.21,147,18.46v20.4l-2.89-.58V16.11c0-.28,0-.56,0-.84a3.78,3.78,0,0,0-2.79-3.61,4.65,4.65,0,0,0-5.81,3.42,4.76,4.76,0,0,0-.06.65A3.28,3.28,0,0,0,136,15a1.53,1.53,0,0,1,1.51-.82,1.46,1.46,0,0,1,1.33,1.1,7.79,7.79,0,0,1,.27,1.73c0,1.81,0,3.62,0,5.44,0,.2,0,.4,0,.66-.47.09-.87.15-1.27.24a3.91,3.91,0,0,0-2.66,2,3.37,3.37,0,0,0,.91,4.19,1.55,1.55,0,0,0,1.23.37,5.61,5.61,0,0,1-.39-.47,1.11,1.11,0,0,1,.32-1.6,2.61,2.61,0,0,1,.78-.29c.86-.19,1.11,0,1.11.88v10.1c-.49.28-.94.5-1.36.78a4.24,4.24,0,0,0-1.93,4.9,4.49,4.49,0,0,0,4,3.69,11.66,11.66,0,0,0,3.34-.12c1.77-.32,3.52-.72,5.29-1a17.3,17.3,0,0,1,2.86-.34c1.13,0,1.67.66,1.49,1.79a3.66,3.66,0,0,1-.49,1.09,3.5,3.5,0,0,1-.44.51A4.65,4.65,0,0,0,155.66,47a4.32,4.32,0,0,0,.27-2.33,4.38,4.38,0,0,0-3.56-3.25,10.8,10.8,0,0,0-3.26.09c-2,.33-4,.75-6,1.06a20.38,20.38,0,0,1-3.4.23A1.84,1.84,0,0,1,138,40.61,2.08,2.08,0,0,1,139.08,39a4.12,4.12,0,0,1,2-.53,18,18,0,0,1,5.27.55c1.18.29,2.35.62,3.54.9a6.73,6.73,0,0,0,2.86.09,3.39,3.39,0,0,0,3-3.13,13.94,13.94,0,0,0,.12-1.83c0-6.21,0-12.41,0-18.62a2.68,2.68,0,0,1,1.22-2.7.69.69,0,0,0,.42-.68c-.71.42-1.13,1.06-1.79,1.39Zm-3.66,3.5c.66.6,1.37,1.21,2,1.85a.85.85,0,0,1,.19.54c0,2,0,3.92,0,5.89a.88.88,0,0,1-.39.77,2,2,0,0,1-2.07.34,1.31,1.31,0,0,1-1-1.5c0-2,.06-4,0-6A1.78,1.78,0,0,1,148.49,14.84Zm-1.18,9.23a2.51,2.51,0,0,0,3.29.12,8.64,8.64,0,0,1,.05,2.95,2.49,2.49,0,0,0-3.32.12C147.29,26.15,147.31,25.19,147.31,24.07Zm3.43,12.06a5.06,5.06,0,0,1-.05.68,2.63,2.63,0,0,1-2.64,2.28,6.52,6.52,0,0,1-.75-.1V28.64A1.48,1.48,0,0,1,148.76,27a2,2,0,0,1,1.32.26,1.19,1.19,0,0,1,.68,1.16C150.73,31,150.75,33.55,150.74,36.13Z"/><path d="M228.42,34.27c0-.1-.08-.14-.08-.19,0-2.17,0-4.34,0-6.51a.84.84,0,0,1,.38-.7l2.18-1.78c-.76-.62-1.45-1.21-2.16-1.78a1,1,0,0,1-.4-.84c0-1.4,0-2.81,0-4.21a5,5,0,0,1,.07-.52l.41-.06a4.44,4.44,0,0,0,4.28-4,3.55,3.55,0,0,0-1.54-3.73A5.54,5.54,0,0,0,228.61,9a5.22,5.22,0,0,0-.85.12,14.47,14.47,0,0,1,1.69.57,1.51,1.51,0,0,1,.86,1.57,1.5,1.5,0,0,1-1.39,1.21,4.93,4.93,0,0,1-1.58-.09c-.91-.19-1.81-.47-2.71-.74-1.7-.5-3.39-1-5.1-1.53a5.9,5.9,0,0,0-4.95.75,4.9,4.9,0,0,0-2,5.76,3.28,3.28,0,0,0,2,2,4.45,4.45,0,0,0-.25-.41,2.12,2.12,0,0,1,1.38-3.2,4.94,4.94,0,0,1,1.88.15L228,17.84c0,.16,0,.4,0,.65,0,1.23,0,2.46,0,3.68a1.48,1.48,0,0,1-.68,1.41c-.62.45-1.2,1-1.84,1.51.72.6,1.35,1.15,2,1.66a1.14,1.14,0,0,1,.49,1c0,2,0,4.09,0,6.13a1,1,0,0,1-.67,1,7.74,7.74,0,0,1-9.08-1.77,2.36,2.36,0,0,1-.23-.39l.71-.38c1.7-.87,3.39-1.74,5.1-2.59a.87.87,0,0,0,.6-.91c0-3.4,0-6.8,0-10.2a4.85,4.85,0,0,0-.07-.55l-2.64,1.18-2.63,1.19a17,17,0,0,1-2.57,1,8.3,8.3,0,0,1,.92-1.78,10.44,10.44,0,0,1,1.33-1.56A17.05,17.05,0,0,1,220.29,17a1.31,1.31,0,0,0-.72.06,12.06,12.06,0,0,0-8,13.64c1.38,7.57,9.51,11.45,15.79,8.05,3.55-1.92,5.12-5,5.4-8.9a2.85,2.85,0,0,0-.09-.54C230.93,32.2,229.78,33.54,228.42,34.27Zm-11-2.18a10.93,10.93,0,0,1-1.39-9.36,1.18,1.18,0,0,1,.7-.82c.88-.36,1.75-.78,2.69-1.2,0,.27.07.46.07.65,0,3.22,0,6.43,0,9.64a.89.89,0,0,1-.63,1c-.37.14-.72.35-1.11.54A4.14,4.14,0,0,1,217.46,32.09Z"/><path d="M27.06,17.74c.25,0,.47,0,.69-.09a4.35,4.35,0,0,0,3.48-2.31c1.13-2.32.87-5.22-2.73-6.19A6.92,6.92,0,0,0,27.22,9a5.59,5.59,0,0,0-.84.12c.65.21,1.19.32,1.68.54A1.54,1.54,0,0,1,29,11.25a1.51,1.51,0,0,1-1.4,1.19A6.05,6.05,0,0,1,26,12.35c-.76-.15-1.52-.39-2.27-.61-1.85-.55-3.68-1.13-5.53-1.67a6,6,0,0,0-5,.77,4.94,4.94,0,0,0-2.08,5.41A3.35,3.35,0,0,0,13.3,18.6L13,18.16A2.08,2.08,0,0,1,14.37,15a4,4,0,0,1,2,.14c1.89.5,3.77,1,5.66,1.5,1.54.4,3.09.76,4.69,1.15,0,.23,0,.48,0,.73a29.59,29.59,0,0,0,0,3A2.34,2.34,0,0,1,25.54,24a12.31,12.31,0,0,0-1.35,1.12c.7.58,1.31,1.13,2,1.61A1.35,1.35,0,0,1,26.72,28c0,1.94,0,3.88,0,5.82A1.1,1.1,0,0,1,26,35a7.75,7.75,0,0,1-9-1.82,2,2,0,0,1-.22-.39l.78-.41c1.68-.85,3.35-1.71,5-2.54a.9.9,0,0,0,.6-.92c0-3.4,0-6.8,0-10.19,0-.17,0-.33-.06-.56-2.67,1.15-5.2,2.38-7.95,3.56A9,9,0,0,1,19,17.08l-.11-.14c-.19,0-.39.08-.58.14-5,1.77-9.79,7.11-7.89,14.5a10.91,10.91,0,0,0,12.47,8.29,9.66,9.66,0,0,0,7.5-5.72,18.93,18.93,0,0,0,.92-3.06,8.82,8.82,0,0,0,.1-1.63c-.5.61-.84,1.26-1.26,1.85A16.53,16.53,0,0,1,28.75,33c-.89.94-1.21,1.14-1.76,1.24v-.76c0-1.77,0-3.53,0-5.29a1.62,1.62,0,0,1,.72-1.55c.63-.44,1.2-1,1.84-1.5-.78-.65-1.47-1.23-2.19-1.81a.84.84,0,0,1-.36-.7c0-1.49,0-3,0-4.45A2.16,2.16,0,0,1,27.06,17.74ZM16.21,32.22a10.85,10.85,0,0,1-1.42-9.63,1,1,0,0,1,.44-.57c.93-.45,1.88-.86,2.89-1.31a3.56,3.56,0,0,1,.08.56c0,3.27,0,6.54,0,9.8a.81.81,0,0,1-.56.87c-.4.16-.77.38-1.17.58A1.92,1.92,0,0,1,16.21,32.22Z"/><path d="M91.25,14.72a4.8,4.8,0,0,0,.54-4.48l-.26.64a2.43,2.43,0,0,1-2.59,1.6,4,4,0,0,1-2.23-.87l-.58-.46a43.09,43.09,0,0,0-4.58,5.47c.67-.35.92-1.05,1.42-1.38a17.33,17.33,0,0,0,1.92,1.17A15.72,15.72,0,0,0,87,17V29.62A2.22,2.22,0,0,1,86.5,29l-8.23-15.2a6.53,6.53,0,0,0-1.71-2.12,4,4,0,0,0-3.16-.79c-2.24.39-4,2.71-3.34,5.69a10.1,10.1,0,0,1,.57-1.14,1.22,1.22,0,0,1,1.43-.6A2.89,2.89,0,0,1,74,17.22c0,1.23,0,2.46,0,3.68,0,.2,0,.39,0,.58-.65.11-1.26.18-1.84.33-3,.78-3.42,4-1.67,6a2.52,2.52,0,0,0,1.67.84c-.63-1-.68-1.52-.23-2a1.91,1.91,0,0,1,2.08-.33,42.34,42.34,0,0,1-.11,6.78l-.75,0a6.42,6.42,0,0,0-3.06,1,5.06,5.06,0,0,0-2,5.26,4.54,4.54,0,0,0,4.12,3.3c.25,0,.53.11.72-.07a10.92,10.92,0,0,1-1.55-1,1.77,1.77,0,0,1-.59-2,2,2,0,0,1,1.8-1.54,3.51,3.51,0,0,1,2.72.94c.25.2.49.43.77.7l.94-1,1-1.08c.31-.34.61-.69.91-1s.66-.71,1-1.08.65-.59.77-1l-.13-.12-1.26,1.36a8.55,8.55,0,0,0-4.83-2.65c-.15-1.27-.09-15.1.08-15.69l.47.82L83.82,34.8c.81,1.5,1.62,3,2.44,4.5.31.57.37.59,1.09.45V16.93A5.23,5.23,0,0,0,91.25,14.72Z"/><path d="M128.37,23l-3.58-3L121,23.6c.4.38.73.73,1.09,1a1.12,1.12,0,0,1,.42.92c0,3.61,0,7.21,0,10.81a.77.77,0,0,1-.67.88c-1-.81-1.93-1.63-2.91-2.43a.86.86,0,0,1-.31-.73c0-3,0-6,0-9a1.06,1.06,0,0,1,.33-.81c.33-.34.65-.71,1-1.11L116.42,20l-3.83,3.45c.39.39.71.75,1.07,1.07a1.3,1.3,0,0,1,.44,1.07q0,4.9,0,9.81a1.14,1.14,0,0,1-.8,1.24c-.71-.58-1.41-1.17-2.14-1.72a1.36,1.36,0,0,1-.57-1.23c0-3.06,0-6.13,0-9.19a3.32,3.32,0,0,0-1.36-2.84c-.45-.34-.92-.64-1.37-1a8.17,8.17,0,0,1-1.11-.93,2,2,0,0,1-.06-2.82l.51-.61c-.42.07-.67.1-.91.16a4.88,4.88,0,0,0-2.71,2,3.73,3.73,0,0,0,.41,4.83c.23.23.47.46.72.67a3.69,3.69,0,0,1,1.38,3.09c0,2.58-.06,5.16,0,7.74A2.06,2.06,0,0,1,105,37a.74.74,0,0,0-.53.63c.72-.26,1.15-.83,1.8-1.14l3.83,3.2,4.18-3.36,4.24,3.39,8.25-5.17v-.9q0-4.11,0-8.2a1.14,1.14,0,0,1,.43-1c.85-.73,1.68-1.48,2.51-2.23a2.2,2.2,0,0,0,.21-.32l-.12-.13Z"/><path d="M268.92,34.92l-1.16,1c-.45-.51-.88-1-1.34-1.48a1.43,1.43,0,0,1-.42-1.09c0-2.61.07-5.22,0-7.82a2.13,2.13,0,0,1,1.11-2.26.87.87,0,0,0,.56-.75l-1.85,1.34-3.25-3.66-4.64,3.71-3.26-3.59-4.49,3.56-3.29-3.54-4.59,4.06a.54.54,0,0,0-.09.12.22.22,0,0,0,0,.08l.11.13,1.47-1.21c.6.67,1.17,1.35,1.78,2a1.52,1.52,0,0,1,.41,1.09q0,3.69,0,7.36a1.36,1.36,0,0,1-.56,1.25,3.74,3.74,0,0,0-.48.49l3.33,3.82,3.46-3.56a4.87,4.87,0,0,0-.6-.64,2.11,2.11,0,0,1-.75-1.88q.06-4.22,0-8.43a1.42,1.42,0,0,1,1-1.58c.67.79,1.33,1.59,2,2.37a1.46,1.46,0,0,1,.37,1c0,2.32,0,4.65,0,7A2,2,0,0,1,253,35.6a.84.84,0,0,0-.17.25c1.07,1.22,2.1,2.42,3.19,3.63l3.44-3.5c-.31-.33-.53-.61-.8-.85a1.4,1.4,0,0,1-.46-1.15q0-4.71,0-9.42a.81.81,0,0,1,.32-.73l.64-.48c.71.79,1.39,1.58,2.11,2.34a1.48,1.48,0,0,1,.41,1.1c0,2.27,0,4.54,0,6.82a2,2,0,0,1-.72,1.88s0,.09-.06.19l3.49,3.87,4.39-4.11a3.07,3.07,0,0,0,.28-.35.09.09,0,0,0,0-.07S269,35,268.92,34.92Z"/><path d="M46.88,23.9c-1.2-1.33-2.33-2.65-3.52-3.94l-1.52,1.32c-.5.43-1,.88-1.5,1.3a5.84,5.84,0,0,1-1.54,1.17V10.5l-5.6,4.41a1.82,1.82,0,0,1,1.06,2c0,1.66,0,3.32,0,5q0,6.32,0,12.64a1.09,1.09,0,0,1-.5,1c-.54.37-1.06.78-1.58,1.19a1.25,1.25,0,0,0-.23.31l.1.11,1.17-.78,3.16,3c2.12-1.5,4.74-3.72,5-4.33l-1.43,1a3.46,3.46,0,0,0-.52-.69,1.73,1.73,0,0,1-.63-1.53c0-2.66,0-5.31,0-8,0-1.64,0-1.64,1.25-2.67a2.11,2.11,0,0,1,.27-.16c.6.76,1.16,1.48,1.75,2.18a1.86,1.86,0,0,1,.43,1.26c0,2.81,0,5.62,0,8.42a37.77,37.77,0,0,1-.22,4,5.05,5.05,0,0,1-3.52,4.55c-.06,0-.1.09-.16.14s.08.1.12.11a7,7,0,0,0,7.76-4.55,8.54,8.54,0,0,0,.45-2.7C47,32.61,47,28.78,47,25a1.2,1.2,0,0,1,.6-1.2,4.72,4.72,0,0,0,.66-.52,1.66,1.66,0,0,0,.22-.3l-.11-.12Z"/><path d="M172.15,24.43l-5-4.37-.72.4c-2.11,1.16-4.22,2.33-6.35,3.46a.93.93,0,0,0-.61,1c0,3.16,0,6.33,0,9.5a1.69,1.69,0,0,1-.75,1.61.77.77,0,0,0-.46.77l1.35-1.11,4.64,3.95a1.43,1.43,0,0,0,.25-.08c2.46-1.42,4.92-2.85,7.39-4.24a.87.87,0,0,0,.48-.92c0-2.76,0-5.52,0-8.28a2.4,2.4,0,0,1,1-2.36c.14-.09.39-.22.17-.54Zm-4.21,12.23c0,.12,0,.24-.08.51-1.29-1.19-2.47-2.27-3.63-3.37a.87.87,0,0,1-.26-.59c0-3.52,0-7,0-10.56,0,0,0,0,.06-.13a2.3,2.3,0,0,1,.4.26c1,1,2.07,1.95,3.12,2.92a1.08,1.08,0,0,1,.39.86Q167.94,31.6,167.94,36.66Z"/><path d="M297.18,28.68c-.24-.51-.88-.81-1.35-1.21s-1-.87-1.56-1.3c.53-.73,1-1.37,1.47-2.05A7.39,7.39,0,0,0,297,21a2.38,2.38,0,0,0-.32-1.62c-.21,1.36-.78,1.92-1.95,2a2.48,2.48,0,0,1-1.83-.6c-.3-.23-.57-.49-.82-.71-2.29,1.36-4.49,2.67-6.7,4a.64.64,0,0,0-.35.68c0,1.18,0,2.35,0,3.52a1.88,1.88,0,0,0,.74,1.71c.73.58,1.38,1.25,2.09,1.91-.56.6-1.07,1.13-1.56,1.67a8.73,8.73,0,0,0-1.66,2.37,3.69,3.69,0,0,0,2,4.94,4.84,4.84,0,0,0,.68.18,1.81,1.81,0,0,0-.49-.53,1.35,1.35,0,0,1-.55-1.48,1.47,1.47,0,0,1,1.36-.93,2.39,2.39,0,0,1,1.09.25,7.3,7.3,0,0,1,1.17.83,5.37,5.37,0,0,1,.4.36l7-4.41c0-1.47,0-3,0-4.53A5,5,0,0,0,297.18,28.68Zm-7.93-6.31c.26.29.41.44.54.61a5.13,5.13,0,0,0,2,1.58,3,3,0,0,0,3-.35c.28-.17.53-.39.8-.59-.25,1-2.94,4.05-4.66,5.22-.47-.43-1-.85-1.45-1.3a.74.74,0,0,1-.2-.47C289.25,25.57,289.25,24.06,289.25,22.37Zm3.87,14.42c-1.75-3.15-5-4.23-7.75-1.46a6.64,6.64,0,0,1,.51-.79c.72-.82,1.43-1.65,2.19-2.42,1-1,2.08-2,3.2-3.1.58.52,1.16,1,1.73,1.56a.51.51,0,0,1,.12.35C293.13,32.88,293.12,34.83,293.12,36.79Z"/><path d="M195.43,36.1c-.38-.41-.69-.78-1.05-1.1a1.62,1.62,0,0,1-.52-1.35q0-11.31,0-22.61v-1l-6,4.25a1.87,1.87,0,0,1,1.4,1.6,7.12,7.12,0,0,1,.15,1.52c0,2.15,0,4.29,0,6.44,0,3.6,0,7.2,0,10.8a1.31,1.31,0,0,1-.53,1.17c-.53.41-1,.87-1.49,1.31a1.32,1.32,0,0,0-.2.32l.13.13,1.31-1.12L192,39.6l4.63-4.11c.07-.06.09-.19.13-.28l-.11-.09Z"/><path d="M58.9,36.55l-3.16-3a1.29,1.29,0,0,1,.14-2.06l1-.78,5.58-4.17-3.6-6.37-8,4.68v.8c0,2.71,0,5.41,0,8.12,0,1-.1,1.85-1.09,2.36a.39.39,0,0,0-.22.56l1.47-1.18,4.53,4.14,7.6-6.13a.92.92,0,0,0,.15-.28l-.12-.11ZM55.48,22.77l3.49,6L55.5,31.37A60.09,60.09,0,0,1,55.48,22.77Z"/><path d="M279.07,36.52c-.16-.13-.3-.23-.43-.35-.92-.87-1.85-1.75-2.76-2.63a1.27,1.27,0,0,1,.15-2.06L282,27.06c.22-.16.43-.34.69-.54L279,20.17l-8,4.67v.77c0,2.78,0,5.56,0,8.34a2,2,0,0,1-1,2.09,1.09,1.09,0,0,0-.29.24,2.15,2.15,0,0,0-.13.46l1.58-1.22,4.45,4.07a1,1,0,0,0,.2-.07l7.49-6c.07-.06.08-.18.13-.27l-.12-.1Zm-3.55-13.64.13-.07,3.47,6-3.6,2.68Z"/><path d="M103.47,33.13l-4.32,3.42-3.14-3a1.27,1.27,0,0,1,.12-2l6-4.48c.22-.16.42-.33.64-.51l-3.59-6.34-8,4.67v.82c0,2.66,0,5.32,0,8A2.42,2.42,0,0,1,90,36.18c-.12.06-.18.23-.26.35l.12.12,1.45-1.14,4.51,4.13,7.57-6.08a1.37,1.37,0,0,0,.19-.22s0-.05,0-.07Zm-7.8-10.29c1.26,1.93,2.38,3.92,3.56,6l-3.62,2.69C95.56,28.51,95.6,25.69,95.67,22.84Z"/><path d="M188.07,20.42c-1.77,1-1.85,1-3.74-.08l-3,2.91-2.56-3.11-4.63,4.26c-.05,0,0,.16,0,.38l1.45-1.23c.49.67,1,1.27,1.39,1.9a1.35,1.35,0,0,1,.17.72c0,2.86,0,5.72,0,8.58a1.09,1.09,0,0,1-.42.92c-.46.4-.91.82-1.35,1.24a1.48,1.48,0,0,0-.21.32c.66-.14,1-.77,1.55-1.06l1.85,1.71,1.83,1.68c1.77-1.27,4.65-3.84,4.87-4.43l-1.67,1.34c-.49-.44-.95-.88-1.44-1.27a1.13,1.13,0,0,1-.43-1c0-3.27,0-6.54,0-9.81a5.29,5.29,0,0,1,.06-.57c.34.3.59.54.87.75a2.87,2.87,0,0,0,2.71.58A4.48,4.48,0,0,0,188.07,20.42Z"/><path d="M206.17,34.7,204.64,36c-.44-.69-.86-1.32-1.27-2l-6.05-9.28c-.23-.34-.43-.65,0-1a19.26,19.26,0,0,0,2.08.94,3.45,3.45,0,0,0,4.09-1.34,7,7,0,0,0,1.22-3,2.15,2.15,0,0,0,0-.4c-1.77,1.66-3.47,1.49-5.13-.09L194,28.06c2.37,3.85,4.71,7.65,7.1,11.51l5.16-4.67s0,0,0-.07Z"/><path d="M240.58,34.44a1.22,1.22,0,0,1-.24-.69c0-2.93,0-5.87,0-8.81a.88.88,0,0,1,.36-.78c.34-.27.67-.56,1-.86.08-.07.1-.22.15-.33l-.11-.08-1.49,1.27-3.29-3.89c-2,1.58-4.26,3.66-4.43,4.22l1.35-1.07c.53.63,1,1.25,1.54,1.83a1.51,1.51,0,0,1,.38,1.11c0,2.78,0,5.57,0,8.35a1.75,1.75,0,0,1-.75,1.62.87.87,0,0,0-.53.82l1.54-1.28,3.1,3.62a30.13,30.13,0,0,0,4.55-4.3c-.63.33-1,.82-1.51,1.16C241.63,35.68,241.09,35.08,240.58,34.44Z"/><path d="M241.05,16.22l-2.75-3.09-3.37,3.14,2.73,3.07Z"/></svg>