<svg id="Слой_1" data-name="Слой 1" xmlns="http://www.w3.org/2000/svg" viewBox="0 0 84 40"><defs><style>.cls-1{fill:#fff;}</style></defs><path class="cls-1" d="M8.26,18.25V34.36c0,1.63.33,2.71,1,3.25a4.94,4.94,0,0,0,2.08,1l0,.78C10,39.34,8,39.29,5.2,39.29c-1.42,0-3.09,0-5,.05l0-.83A2.59,2.59,0,0,0,2.4,37.17a5.7,5.7,0,0,0,.71-2.86V7A8.49,8.49,0,0,0,1.77,2.38,4.85,4.85,0,0,0,.08,1L.22.28A41.52,41.52,0,0,0,4.86.57,58.14,58.14,0,0,0,10.74.33l.1.68c-1.72.43-2.58,1.66-2.58,3.71V15.56h8.25V5.65a5.33,5.33,0,0,0-.63-2.93,4.32,4.32,0,0,0-2.36-1.46l.1-.78c1.1.09,3,.14,5.54.14A29.94,29.94,0,0,0,24.38.28l.11.93q-2.82.63-2.82,4.44V34.56a5,5,0,0,0,.72,2.54,2.67,2.67,0,0,0,2.17,1.36l0,.83c-1-.06-2.74-.09-5.26-.09s-4.54.06-5.91.19l-.1-.73a4.9,4.9,0,0,0,2.69-2,5.66,5.66,0,0,0,.57-2.56V18.25Z"/><path class="cls-1" d="M36.38,10.63a9.59,9.59,0,0,1,8.09,4q3,4,3,10.4a17.41,17.41,0,0,1-3.06,10.57,9.74,9.74,0,0,1-16,0A17.11,17.11,0,0,1,25.31,25a16.22,16.22,0,0,1,3.22-10.23A9.6,9.6,0,0,1,36.38,10.63Zm-4.49,5.1A23.15,23.15,0,0,0,30.36,25a24.5,24.5,0,0,0,1.53,9.37q1.53,3.66,4.49,3.66c2,0,3.5-1.22,4.52-3.68A24.6,24.6,0,0,0,42.43,25a23.15,23.15,0,0,0-1.53-9.31q-1.53-3.39-4.52-3.39T31.89,15.73Z"/><path class="cls-1" d="M65.29,33.14a8.24,8.24,0,0,0,.74,4,2.52,2.52,0,0,0,1.77,1.46l-.07.73c-.69-.06-1.5-.09-2.44-.09a22.72,22.72,0,0,0-5.05.29L60,39.1a8.58,8.58,0,0,0,.45-3.42,11.3,11.3,0,0,1-2.58,3,5.28,5.28,0,0,1-3.4,1.15A3.4,3.4,0,0,1,51.81,38a10.16,10.16,0,0,1-1.23-5.62V16.49c0-1.17-.28-1.76-.83-1.76a2.43,2.43,0,0,0-1.24.35l-.24-.74q1.62-1,3.75-2.46a17.61,17.61,0,0,0,3.75-3.4l.37.39a12.57,12.57,0,0,0-.75,4.25V31.53A9.08,9.08,0,0,0,55.92,35a1.76,1.76,0,0,0,1.67,1.22,3.63,3.63,0,0,0,2.89-1.95V16.59c0-1.17-.28-1.76-.83-1.76a2.49,2.49,0,0,0-1.24.34l-.24-.73q1.62-1,3.75-2.46a17.87,17.87,0,0,0,3.75-3.4L66,9a12.57,12.57,0,0,0-.75,4.25Z"/><path class="cls-1" d="M70.24,23.79a9.2,9.2,0,0,1-1-4.86,8.82,8.82,0,0,1,2.28-5.88,7.37,7.37,0,0,1,5.83-2.66,6.89,6.89,0,0,1,4.09,1.17.78.78,0,0,0,.34-.63l.38.14a33.8,33.8,0,0,0-.38,4.69c0,1.63.07,3.22.21,4.78l-.48.15c-.51-3.58-1.07-5.91-1.7-7a3.16,3.16,0,0,0-2.94-1.61,4.47,4.47,0,0,0-3.42,1.29,4.06,4.06,0,0,0-1.22,2.86,2.9,2.9,0,0,0,.74,2.1,12.57,12.57,0,0,0,2.69,1.9,32.64,32.64,0,0,1,3.77,2.47,11.24,11.24,0,0,1,2.89,3.22,8.92,8.92,0,0,1,1.11,4.61c0,2.77-.52,4.86-1.58,6.25a7.21,7.21,0,0,1-3.2,2.67,9.67,9.67,0,0,1-3.16.56A6.42,6.42,0,0,1,71.58,39a8.58,8.58,0,0,1-1.89-1.66c-.28,0-.53.31-.76.93l-.2-.15a26.1,26.1,0,0,0,.34-4.59q0-2.62-.38-7.37l.48-.05A31.35,31.35,0,0,0,71,34.41q1.86,3.92,4.57,3.91A4.34,4.34,0,0,0,79,36.9a5.55,5.55,0,0,0,1.24-3.81,4.14,4.14,0,0,0-1.48-3,17.77,17.77,0,0,0-4.4-2.88A11.63,11.63,0,0,1,70.24,23.79Z"/></svg>