<svg id="Слой_1" data-name="Слой 1" xmlns="http://www.w3.org/2000/svg" viewBox="0 0 279.83 59.23"><defs><style>.cls-1{fill:none;}</style></defs><path class="cls-1" d="M115.31,21.4a8.15,8.15,0,0,0-2.57-.92,21.77,21.77,0,0,0-4.63-.25l-.09,0V39h.1a18.42,18.42,0,0,0,5.39-.45,6.56,6.56,0,0,0,2.56-1.34A7.07,7.07,0,0,0,118.25,33a20.34,20.34,0,0,0,.28-4.05A13.55,13.55,0,0,0,118,25,6.14,6.14,0,0,0,115.31,21.4Z"/><path class="cls-1" d="M57.6,20.8a5.9,5.9,0,0,0-4.68-1.12,5.26,5.26,0,0,0-3,1.49,7.15,7.15,0,0,0-1.61,2.52,15.72,15.72,0,0,0-.91,5.52c0,.8.11,1.6.11,2.4A11.88,11.88,0,0,0,48.56,36a6.25,6.25,0,0,0,1.36,2,5.43,5.43,0,0,0,3.83,1.57A5.67,5.67,0,0,0,59,36.85a11.49,11.49,0,0,0,1.56-5.3c.09-.95.09-1.91.09-2.87a13.92,13.92,0,0,0-1-5.14A6.72,6.72,0,0,0,57.6,20.8Z"/><path class="cls-1" d="M90,23.65a6.68,6.68,0,0,0-2-2.77,5.47,5.47,0,0,0-3.75-1.22,5.6,5.6,0,0,0-2.55.54,6.39,6.39,0,0,0-3.1,3.65,15.87,15.87,0,0,0-.91,5.47,21.67,21.67,0,0,0,.1,2.27A12.59,12.59,0,0,0,79,36.1a6.12,6.12,0,0,0,2.82,2.95,6.26,6.26,0,0,0,3.36.5,5.5,5.5,0,0,0,2.13-.65A6.4,6.4,0,0,0,90,35.63a16.36,16.36,0,0,0,1-6.23c0-.54-.11-1.08-.11-1.62A12.7,12.7,0,0,0,90,23.65Z"/><path class="cls-1" d="M136,32.07c-.09,0-.15.11-.19.11a5.78,5.78,0,0,0-2.31,4.64,7.1,7.1,0,0,0,.82,3.64,5.9,5.9,0,0,0,5.23,3.23,7.68,7.68,0,0,0,3-.52,7.27,7.27,0,0,0,2.62-1.59A67.26,67.26,0,0,1,136,32.07Z"/><path d="M183.69,34.68h-.08L178,14.29h-5.34q-2.92,10.2-5.86,20.39h-.08q-2.5-10.2-5-20.38H155l8,30.6h6.13q2.92-9.52,5.85-19H175Q178,35.4,181,44.9h5.9l8.2-30.6h-6.59Q186.06,24.52,183.69,34.68Z"/><path d="M229.35,33.45h-.08q-5.81-9.6-11.6-19.15h-6.83V44.89h6.58V25.6L229.5,44.91h6.44V14.3h-6.58Z"/><path d="M96.25,20.54A12.44,12.44,0,0,0,93.6,17a10.59,10.59,0,0,0-2.88-2,13.73,13.73,0,0,0-5.31-1.29,16.58,16.58,0,0,0-5.25.52,11.67,11.67,0,0,0-5.86,3.65,13.75,13.75,0,0,0-2.72,4.94,22.29,22.29,0,0,0-1,6.64c0,.91.08,1.82.15,2.78a18.67,18.67,0,0,0,1,4.73,13.17,13.17,0,0,0,3.46,5.35,11.57,11.57,0,0,0,3.9,2.38,17,17,0,0,0,5.29.91c.83-.08,1.68-.12,2.52-.23A12.37,12.37,0,0,0,91,44.07a12,12,0,0,0,5.58-6.15,20.8,20.8,0,0,0,1.57-8.35,22.78,22.78,0,0,0-.46-4.73A17.6,17.6,0,0,0,96.25,20.54ZM90,35.63a6.4,6.4,0,0,1-2.73,3.27,5.5,5.5,0,0,1-2.13.65,6.26,6.26,0,0,1-3.36-.5A6.12,6.12,0,0,1,79,36.1a12.59,12.59,0,0,1-1.13-4.51,21.67,21.67,0,0,1-.1-2.27,15.87,15.87,0,0,1,.91-5.47,6.39,6.39,0,0,1,3.1-3.65,5.6,5.6,0,0,1,2.55-.54,5.47,5.47,0,0,1,3.75,1.22,6.68,6.68,0,0,1,2,2.77,12.7,12.7,0,0,1,.91,4.13c0,.54.12,1.08.11,1.62A16.36,16.36,0,0,1,90,35.63Z"/><path d="M67.17,24.21a14.06,14.06,0,0,0-4-7.29,11.2,11.2,0,0,0-3-2,15.4,15.4,0,0,0-7.61-1.17,14.9,14.9,0,0,0-3.9.82,11,11,0,0,0-4.21,2.68,12.67,12.67,0,0,0-2.6,3.87,18.87,18.87,0,0,0-1.54,6.26c-.09,1.07,0,2.15,0,3.22a16.74,16.74,0,0,0,.25,2.91,16.83,16.83,0,0,0,2,5.84,11.78,11.78,0,0,0,3.94,4.18,13.36,13.36,0,0,0,6.53,2A16.34,16.34,0,0,0,58.1,45a11.67,11.67,0,0,0,6-3.65,14.36,14.36,0,0,0,3-6,22.41,22.41,0,0,0,.71-5.82c0-.63-.07-1.26-.09-1.89A18.88,18.88,0,0,0,67.17,24.21Zm-6.61,7.34A11.49,11.49,0,0,1,59,36.85a5.67,5.67,0,0,1-5.25,2.74A5.43,5.43,0,0,1,49.92,38a6.25,6.25,0,0,1-1.36-2,11.88,11.88,0,0,1-1.09-4.43c0-.8-.13-1.6-.11-2.4a15.72,15.72,0,0,1,.91-5.52,7.15,7.15,0,0,1,1.61-2.52,5.26,5.26,0,0,1,3-1.49A5.9,5.9,0,0,1,57.6,20.8a6.72,6.72,0,0,1,2,2.74,13.92,13.92,0,0,1,1,5.14C60.65,29.64,60.65,30.6,60.56,31.55Z"/><path d="M124.55,23.15a11.9,11.9,0,0,0-3.65-5.36,13.22,13.22,0,0,0-4.32-2.37,22.59,22.59,0,0,0-7.06-1.14c-2.65,0-5.32,0-8,0h-.48V44.93h6.63c1.4,0,2.81,0,4.21-.16a21.14,21.14,0,0,0,5.38-1.24,12.44,12.44,0,0,0,4.89-3.36,12.58,12.58,0,0,0,2.69-5.28,22.3,22.3,0,0,0,.58-6.61A19,19,0,0,0,124.55,23.15ZM118.25,33a7.07,7.07,0,0,1-2.18,4.19,6.56,6.56,0,0,1-2.56,1.34,18.42,18.42,0,0,1-5.39.45H108V20.27l.09,0a21.77,21.77,0,0,1,4.63.25,8.15,8.15,0,0,1,2.57.92A6.14,6.14,0,0,1,118,25a13.55,13.55,0,0,1,.54,3.9A20.34,20.34,0,0,1,118.25,33Z"/><polygon points="247.79 38.97 247.79 32.12 258.96 32.12 258.96 26.66 247.79 26.66 247.79 20.27 260.85 20.27 260.85 14.3 240.89 14.3 240.89 44.9 261.34 44.9 261.34 38.97 247.79 38.97"/><polygon points="18.49 44.9 25.5 44.9 25.5 32.89 36.53 32.89 36.53 26.95 25.42 26.95 25.42 20.19 38.41 20.19 38.41 14.3 18.49 14.3 18.49 44.9"/><path d="M198.07,14.35V44.89h6.84V14.3C203.89,14.2,198.35,14.25,198.07,14.35Z"/><path d="M156.29,44.56A6.26,6.26,0,0,1,154,44a23.62,23.62,0,0,1-5.7-3.72,15.13,15.13,0,0,0,2.36-4.06,9.14,9.14,0,0,0,.72-3.34.57.57,0,0,0-.42-.61,2.07,2.07,0,0,0-.55-.11c-.56-.07-1.14-.12-1.71-.16s-1.2-.05-1.83-.06c-.23,0-.5,0-.61.26.06.28.27.26.47.27a1.87,1.87,0,0,1,2.06,1.67,2.67,2.67,0,0,1,0,.4,9.56,9.56,0,0,1-.91,3.71c-.18.41-.41.8-.62,1.18-.1,0-.13,0-.15,0-1.41-1.31-2.84-2.59-4.23-3.92-.74-.71-1.44-1.45-2.11-2.22-1-1.13-2-2.26-2.9-3.45a6.24,6.24,0,0,1-1.44-4.36,3.46,3.46,0,0,1,1.35-2.67,3.91,3.91,0,0,1,3.14-.7,3.85,3.85,0,0,1,3.38,3.79,6.42,6.42,0,0,0,.1.75c.37,0,.44,0,.5-.42a26.68,26.68,0,0,0,.27-3.89c0-.56-.09-.7-.62-.92a9.84,9.84,0,0,0-5.83-.39,6.72,6.72,0,0,0-3.89,2.4,5,5,0,0,0-1.14,2.87,6.33,6.33,0,0,0,1,3.77c.18.31.38.61.58.92l-.17.1a10.31,10.31,0,0,0-3.74,3.65,6.9,6.9,0,0,0,4,10.35,10.73,10.73,0,0,0,4.68.35,9.8,9.8,0,0,0,4.89-2c.44-.34.86-.7,1.28-1l1.58,1.15a7.37,7.37,0,0,0,4.45,1.5H156a2.84,2.84,0,0,0,.65-.1C156.74,44.61,156.53,44.61,156.29,44.56Zm-13.76-1.39a7.68,7.68,0,0,1-3,.52,5.9,5.9,0,0,1-5.23-3.23,7.1,7.1,0,0,1-.82-3.64,5.78,5.78,0,0,1,2.31-4.64s.1-.06.19-.11a67.26,67.26,0,0,0,9.2,9.51A7.27,7.27,0,0,1,142.53,43.17Z"/></svg>