<?xml version="1.0" encoding="UTF-8"?>
<svg id="_Слой_1" data-name="Слой_1" xmlns="http://www.w3.org/2000/svg" viewBox="0 0 300 85.22">
  <defs>
    <style>
      .cls-1 {
        fill: #fff;
      }
    </style>
  </defs>
  <path d="M300,15.22v70H.78V15.63c8.52-.51,15.83,1.2,22.89,4.27,11.59,5.05,23.21,5.09,34.75-.02,12.72-5.63,25.34-5.69,38.05-.02,11.55,5.15,23.18,5.12,34.73.02,12.71-5.62,25.33-5.72,38.05-.01,11.35,5.09,22.91,5.21,34.27.2,13.07-5.77,25.96-5.97,38.98,0,10.18,4.67,20.83,5.01,31.03,1.08,8.64-3.33,17.24-5.76,26.47-5.92Z"/>
  <path class="cls-1" d="M300,15.22c-9.23.16-17.83,2.59-26.47,5.92-10.21,3.93-20.86,3.59-31.03-1.08-13.01-5.97-25.9-5.77-38.98,0-11.36,5.02-22.91,4.9-34.27-.2-12.72-5.71-25.34-5.61-38.05.01-11.55,5.1-23.19,5.13-34.73-.02-12.71-5.67-25.33-5.61-38.05.02-11.53,5.11-23.16,5.06-34.75.02-7.06-3.08-14.38-4.78-22.89-4.27,0,23.44,0,46.52,0,69.59-.33-1.33-.95-2.67-.96-4C-.23,54.22-.22,27.22-.22.22h300.22v15Z"/>
</svg>