<?xml version="1.0" encoding="UTF-8"?>
<svg id="_Слой_1" data-name="Слой_1" xmlns="http://www.w3.org/2000/svg" viewBox="0 0 300 85">
  <defs>
    <style>
      .cls-1 {
        fill: #fff;
      }
    </style>
  </defs>
  <path d="M300,15v70H0V15c7.75,1.6,15.8,2.37,23.19,5,11.73,4.18,23.07,4.76,34.46-.29,12.75-5.65,25.41-5.79,38.17-.12,11.76,5.22,23.54,5.13,35.31-.07,12.57-5.56,25.12-5.52,37.7.1,11.57,5.17,23.28,5.18,34.85.08,12.95-5.71,25.76-5.75,38.63.14,10.21,4.67,20.89,5.02,31.13,1.09,8.67-3.33,17.29-5.76,26.55-5.93Z"/>
  <path class="cls-1" d="M300,15c-9.26.16-17.88,2.6-26.55,5.93-10.24,3.93-20.92,3.58-31.13-1.09-12.87-5.88-25.68-5.85-38.63-.14-11.57,5.1-23.28,5.1-34.85-.08-12.58-5.63-25.13-5.66-37.7-.1-11.77,5.21-23.55,5.3-35.31.07-12.76-5.67-25.42-5.53-38.17.12-11.4,5.05-22.73,4.47-34.46.29-7.39-2.63-15.44-3.4-23.19-5V0h300v15Z"/>
</svg>